{
  "accessors": [
    {
      "bufferView": 1,
      "componentType": 5126,
      "count": 5602,
      "max": [
        4.6469597816467285,
        4.794221878051758,
        1.2482240200042725
      ],
      "min": [
        -4.6469597816467285,
        -2.4169681072235107,
        -1.1083799600601196
      ],
      "type": "VEC3"
    },
    {
      "bufferView": 1,
      "byteOffset": 67224,
      "componentType": 5126,
      "count": 5602,
      "max": [
        1.0,
        1.0,
        1.0
      ],
      "min": [
        -1.0,
        -1.0,
        -1.0
      ],
      "type": "VEC3"
    },
    {
      "bufferView": 0,
      "componentType": 5125,
      "count": 20532,
      "type": "SCALAR"
    },
    {
      "bufferView": 1,
      "byteOffset": 134448,
      "componentType": 5126,
      "count": 5599,
      "max": [
        4.812633991241455,
        4.479869842529297,
        1.2675620317459106
      ],
      "min": [
        -4.812633991241455,
        -2.0766069889068604,
        -0.9494779706001282
      ],
      "type": "VEC3"
    },
    {
      "bufferView": 1,
      "byteOffset": 201636,
      "componentType": 5126,
      "count": 5599,
      "max": [
        1.0,
        0.999995231628418,
        0.9999972581863403
      ],
      "min": [
        -1.0,
        -0.999995231628418,
        -0.9999995231628418
      ],
      "type": "VEC3"
    },
    {
      "bufferView": 0,
      "byteOffset": 82128,
      "componentType": 5125,
      "count": 22188,
      "type": "SCALAR"
    }
  ],
  "asset": {
    "extras": {
      "author": "Meee (https://sketchfab.com/Meee)",
      "license": "CC-BY-4.0 (http://creativecommons.org/licenses/by/4.0/)",
      "source": "https://sketchfab.com/3d-models/cessna-172-wip-731b2971c64d42fd9205bb8324f37dc3",
      "title": "Cessna 172 (WIP)"
    },
    "generator": "Sketchfab-12.66.0",
    "version": "2.0"
  },
  "bufferViews": [
    {
      "buffer": 0,
      "byteLength": 170880,
      "name": "floatBufferViews",
      "target": 34963
    },
    {
      "buffer": 0,
      "byteLength": 268824,
      "byteOffset": 170880,
      "byteStride": 12,
      "name": "floatBufferViews",
      "target": 34962
    }
  ],
  "buffers": [
    {
      "byteLength": 439704,
      "uri": "scene.bin"
    }
  ],
  "materials": [
    {
      "doubleSided": true,
      "name": "material_0",
      "pbrMetallicRoughness": {
        "metallicFactor": 0.0,
        "roughnessFactor": 0.6
      }
    }
  ],
  "meshes": [
    {
      "name": "Object_0",
      "primitives": [
        {
          "attributes": {
            "NORMAL": 1,
            "POSITION": 0
          },
          "indices": 2,
          "material": 0,
          "mode": 4
        }
      ]
    },
    {
      "name": "Object_1",
      "primitives": [
        {
          "attributes": {
            "NORMAL": 4,
            "POSITION": 3
          },
          "indices": 5,
          "material": 0,
          "mode": 4
        }
      ]
    }
  ],
  "nodes": [
    {
      "children": [
        1
      ],
      "matrix": [
        1.1367225646972656,
        0.0,
        0.0,
        0.0,
        0.0,
        2.524031127875727e-16,
        -1.1367225646972656,
        0.0,
        0.0,
        1.1367225646972656,
        2.524031127875727e-16,
        0.0,
        0.0,
        0.0,
        0.0,
        1.0
      ],
      "name": "Sketchfab_model"
    },
    {
      "children": [
        2,
        3
      ],
      "name": "Cessna.obj.cleaner.materialmerger.gles"
    },
    {
      "mesh": 0,
      "name": "Object_2"
    },
    {
      "mesh": 1,
      "name": "Object_3"
    }
  ],
  "scene": 0,
  "scenes": [
    {
      "name": "Sketchfab_Scene",
      "nodes": [
        0
      ]
    }
  ]
}
